<?xml version="1.0" encoding="utf-8"?>
<!-- Generator: Adobe Illustrator 18.1.1, SVG Export Plug-In . SVG Version: 6.00 Build 0)  -->
<svg version="1.1" id="logo_xA0_Image_1_" xmlns="http://www.w3.org/2000/svg" xmlns:xlink="http://www.w3.org/1999/xlink" x="0px"
	 y="0px" viewBox="0 0 1023.872 1023.872" enable-background="new 0 0 1023.872 1023.872" xml:space="preserve">
<path d="M550.851,718.095"/>
<path fill="#606061" d="M506.06,170.448c-185.298,0-336.04,150.742-336.04,336.04c0,185.298,150.741,336.04,336.04,336.04
	c185.298,0,336.04-150.742,336.04-336.04C842.099,321.19,691.357,170.448,506.06,170.448L506.06,170.448z"/>
<path d="M506.06,820.097"/>
<path fill="#FFFFFF" d="M555.779,253.478c-10.991-6.301-24.012-6.189-34.892,0.21c-0.714,0.448-1.372,0.938-1.975,1.484
	L370.58,393.271c-1.694,0.77-3.5,1.204-5.363,1.204h-93.251c-19.14,0-34.724,15.584-34.724,34.781v143.306
	c0,19.141,15.584,34.724,34.724,34.724h93.251c1.863,0,3.724,0.434,5.363,1.26l148.333,138.042c0.602,0.602,1.26,1.106,1.975,1.484
	c5.517,3.22,11.593,4.872,17.6,4.872c5.965,0,11.873-1.54,17.291-4.649c10.936-6.3,17.503-17.558,17.503-30.202v-434.43
	C573.282,271.036,566.715,259.765,555.779,253.478L555.779,253.478z"/>
<path fill="#FFFFFF" d="M638.585,364.175c-4.383,4.368-4.383,11.425,0,15.807c69.896,69.897,69.896,183.604,0,253.444
	c-4.383,4.383-4.383,11.495,0,15.864c2.184,2.184,5.082,3.291,7.925,3.291c2.898,0,5.741-1.106,7.939-3.291
	c78.591-78.591,78.591-206.524,0-285.115C650.066,359.792,642.954,359.792,638.585,364.175L638.585,364.175z M638.585,364.175"/>
<path fill="#FFFFFF" d="M614.797,397.751c-4.382-4.368-11.496-4.368-15.864,0c-4.382,4.382-4.382,11.496,0,15.864
	c48.124,48.138,48.124,126.449,0,174.586c-4.382,4.369-4.382,11.425,0,15.808c2.184,2.184,5.083,3.276,7.925,3.276
	c2.898,0,5.74-1.092,7.939-3.276C671.671,547.121,671.671,454.64,614.797,397.751L614.797,397.751z M614.797,397.751"/>
</svg>
