<?xml version="1.0" encoding="utf-8"?>
<!-- Generator: Adobe Illustrator 18.1.1, SVG Export Plug-In . SVG Version: 6.00 Build 0)  -->
<svg version="1.1" id="logo_xA0_Image_1_" xmlns="http://www.w3.org/2000/svg" xmlns:xlink="http://www.w3.org/1999/xlink" x="0px"
	 y="0px" viewBox="0 0 1023.872 1023.872" enable-background="new 0 0 1023.872 1023.872" xml:space="preserve">
<path fill="#ffffff" d="M506.06,170.448c-185.298,0-336.04,150.742-336.04,336.04c0,185.298,150.741,336.04,336.04,336.04
	c185.298,0,336.04-150.742,336.04-336.04C842.099,321.19,691.357,170.448,506.06,170.448z M573.282,718.095
	c0,12.643-6.567,23.901-17.503,30.202c-5.418,3.108-11.327,4.649-17.291,4.649c-6.007,0-12.084-1.652-17.6-4.872
	c-0.714-0.378-1.372-0.882-1.975-1.484L370.58,608.546c-1.639-0.826-3.5-1.261-5.363-1.261h-93.251
	c-19.14,0-34.724-15.583-34.724-34.724V429.255c0-19.196,15.584-34.781,34.724-34.781h93.251c1.863,0,3.669-0.434,5.363-1.204
	l148.333-138.098c0.602-0.546,1.26-1.036,1.975-1.484c10.879-6.399,23.901-6.511,34.892-0.21
	c10.936,6.287,17.503,17.558,17.503,30.187V718.095z M606.858,607.286c-2.842,0-5.741-1.092-7.925-3.276
	c-4.382-4.383-4.382-11.44,0-15.808c48.124-48.138,48.124-126.449,0-174.586c-4.382-4.369-4.382-11.482,0-15.864
	c4.369-4.368,11.482-4.368,15.864,0c56.874,56.889,56.874,149.37,0,206.259C612.598,606.194,609.756,607.286,606.858,607.286z
	 M654.449,649.291c-2.198,2.184-5.041,3.291-7.939,3.291c-2.842,0-5.74-1.106-7.925-3.291c-4.383-4.369-4.383-11.481,0-15.864
	c69.896-69.84,69.896-183.547,0-253.444c-4.383-4.382-4.383-11.439,0-15.807c4.369-4.383,11.481-4.383,15.864,0
	C733.04,442.766,733.04,570.7,654.449,649.291z"/>
</svg>
