<?xml version="1.0" encoding="utf-8"?>
<!-- Generator: Adobe Illustrator 18.1.1, SVG Export Plug-In . SVG Version: 6.00 Build 0)  -->
<svg version="1.1" id="logo_xA0_Image_1_" xmlns="http://www.w3.org/2000/svg" xmlns:xlink="http://www.w3.org/1999/xlink" x="0px"
	 y="0px" viewBox="0 0 1729.13 878.74" enable-background="new 0 0 1729.13 878.74" xml:space="preserve">
<path d="M897.964,616.306"/>
<path fill="#FFFFFF" d="M859.522,146.287c-159.032,0-288.407,129.375-288.407,288.407s129.374,288.407,288.407,288.407
	c159.032,0,288.407-129.375,288.407-288.407C1147.928,275.662,1018.553,146.287,859.522,146.287L859.522,146.287z"/>
<path d="M859.522,703.85"/>
<path fill="#FFFFFF" d="M902.193,217.548c-9.433-5.408-20.608-5.312-29.946,0.18c-0.613,0.384-1.178,0.805-1.695,1.274
	L743.246,337.526c-1.454,0.661-3.004,1.033-4.603,1.033H658.61c-16.427,0-29.802,13.375-29.802,29.851v122.993
	c0,16.428,13.375,29.802,29.802,29.802h80.033c1.599,0,3.196,0.372,4.603,1.081L870.553,640.76c0.517,0.517,1.081,0.949,1.695,1.274
	c4.735,2.764,9.95,4.181,15.105,4.181c5.12,0,10.19-1.322,14.84-3.99c9.386-5.407,15.022-15.069,15.022-25.921v-372.85
	C917.215,232.617,911.579,222.944,902.193,217.548L902.193,217.548z"/>
<path fill="#FFFFFF" d="M973.262,312.554c-3.762,3.749-3.762,9.806,0,13.566c59.988,59.989,59.988,157.578,0,217.519
	c-3.762,3.762-3.762,9.866,0,13.615c1.874,1.874,4.362,2.825,6.802,2.825c2.487,0,4.927-0.949,6.814-2.825
	c67.451-67.451,67.451-177.25,0-244.7C983.115,308.792,977.011,308.792,973.262,312.554L973.262,312.554z"/>
<path fill="#FFFFFF" d="M952.846,341.371c-3.761-3.749-9.866-3.749-13.615,0c-3.761,3.761-3.761,9.866,0,13.615
	c41.302,41.315,41.302,108.525,0,149.839c-3.761,3.75-3.761,9.806,0,13.567c1.874,1.874,4.362,2.812,6.802,2.812
	c2.487,0,4.926-0.937,6.814-2.812C1001.658,469.568,1001.658,390.196,952.846,341.371L952.846,341.371z"/>
</svg>
