<?xml version="1.0" encoding="utf-8"?>
<!-- Generator: Adobe Illustrator 18.1.1, SVG Export Plug-In . SVG Version: 6.00 Build 0)  -->
<svg version="1.1" id="logo_xA0_Image_1_" xmlns="http://www.w3.org/2000/svg" xmlns:xlink="http://www.w3.org/1999/xlink" x="0px"
	 y="0px" viewBox="0 0 1023.872 1023.872" enable-background="new 0 0 1023.872 1023.872" xml:space="preserve">
<path fill="#FFFFFF" d="M674.576,268.955c-8.928,0-17.857,0.099-26.783-0.019c-26.85-0.354-47.892-21.65-47.745-48.224
	c0.145-26.193,21.166-47.347,47.721-47.445c48.093-0.178,96.187-0.202,144.28,0.012c26.095,0.116,47.141,21.018,47.277,47.079
	c0.252,48.341,0.256,96.686-0.001,145.027c-0.14,26.343-21.789,47.258-47.999,47.186c-26.179-0.072-47.284-21.106-47.641-47.579
	c-0.121-8.959-0.019-17.922-0.019-28.69c-2.863,2.697-4.751,4.387-6.541,6.176c-34.549,34.523-69.12,69.023-103.608,103.606
	c-13.64,13.677-29.824,17.706-47.991,12.058c-18.246-5.673-29.143-18.616-32.586-37.346c-3.015-16.409,2.141-30.338,13.951-42.099
	c34.253-34.113,68.376-68.358,102.581-102.519c1.911-1.909,4.108-3.532,6.172-5.288C675.288,270.245,674.932,269.6,674.576,268.955z
	"/>
<path fill="#FFFFFF" d="M264.926,680.367c3.23-3.085,5.2-4.893,7.089-6.781c34.545-34.526,69.002-69.141,103.653-103.561
	c15.715-15.61,38.173-18.347,57.034-7.489c18.321,10.547,28.213,32.679,21.884,53.219c-2.586,8.393-8.04,16.7-14.235,23.051
	c-33.402,34.249-67.439,67.88-101.291,101.69c-1.906,1.904-4.118,3.503-6.187,5.244c0.278,0.655,0.555,1.31,0.833,1.965
	c9.283,0,18.569-0.137,27.849,0.027c23.654,0.418,43.116,17.804,46.644,41.51c3.317,22.292-10.78,44.787-32.802,51.691
	c-4.908,1.539-10.244,2.381-15.387,2.401c-47.345,0.179-94.691,0.186-142.037,0.076c-27.902-0.065-48.697-20.825-48.761-48.67
	c-0.108-47.345-0.11-94.691,0.001-142.037c0.065-27.51,21.174-48.711,48.061-48.622c26.494,0.087,47.38,21.253,47.637,48.34
	C264.996,661.128,264.926,669.839,264.926,680.367z"/>
</svg>
