<?xml version="1.0" encoding="utf-8"?>
<!-- Generator: Adobe Illustrator 18.1.1, SVG Export Plug-In . SVG Version: 6.00 Build 0)  -->
<svg version="1.1" id="logo_xA0_Image_1_" xmlns="http://www.w3.org/2000/svg" xmlns:xlink="http://www.w3.org/1999/xlink" x="0px"
	 y="0px" viewBox="0 0 1023.872 1023.872" enable-background="new 0 0 1023.872 1023.872" xml:space="preserve">
<path fill="#FFFFFF" d="M504.106,569.928"/>
<path fill="#FFFFFF" d="M504.106,472.343"/>
<g>
	<path fill="#606061" d="M388.719,559.94l32.841,56.883l15.227,26.371l43.472-75.295l61.086-105.805l61.088,105.805l58.561,101.428
		V338.089H325.378v331.562l30.5-52.828L388.719,559.94z M407.534,381.626c22.221,0,40.233,18.014,40.233,40.234
		s-18.014,40.233-40.233,40.233c-22.22,0-40.234-18.014-40.234-40.233C367.299,399.64,385.313,381.626,407.534,381.626z"/>
	<path fill="#606061" d="M504.111,170.981c-184.678,0-334.926,150.245-334.926,334.923c0,184.667,150.248,334.907,334.926,334.907
		c184.667,0,334.917-150.24,334.917-334.907C839.03,321.227,688.778,170.981,504.111,170.981z M670.524,683.237H315.843V328.556
		h354.681V683.237z"/>
</g>
</svg>
