<?xml version="1.0" encoding="utf-8"?>
<!-- Generator: Adobe Illustrator 18.1.1, SVG Export Plug-In . SVG Version: 6.00 Build 0)  -->
<svg version="1.1" id="Layer_1" xmlns="http://www.w3.org/2000/svg" xmlns:xlink="http://www.w3.org/1999/xlink" x="0px" y="0px"
	 viewBox="0 0 1687.125 1031.25" enable-background="new 0 0 1687.125 1031.25" xml:space="preserve">
<text transform="matrix(1 0 0 1 863.7401 602.9178)" fill="#FFFFFF" font-family="'BorisBlackBloxx'" font-size="106.5964">WHISTLER</text>
<path fill="#FFFFFF" d="M491.102,426.968c18.415-12.759,43.682-8.169,56.448,10.245l161.708,233.47
	c23.118-42.586,36.252-91.379,36.252-143.242c0-47.308-10.938-92.056-30.399-131.87l-92.356,126.004l-48.877-70.565l92.759-126.56
	c-54.973-60.038-133.989-97.693-221.81-97.693c-87.082,0-165.502,37.031-220.414,96.193L408.438,588.63
	c12.753,18.41,8.159,43.681-10.25,56.443c-18.415,12.759-43.694,8.169-56.447-10.245L175.156,394.333
	c-19.841,40.128-31.014,85.307-31.014,133.107c0,54.63,14.57,105.851,40.038,150.003l88.698-121.012l48.873,70.565l-84.704,115.569
	h-2.269c54.201,52.922,128.305,85.56,210.048,85.56c83.385,0,158.839-33.953,213.302-88.774L480.847,483.408
	C468.094,465.001,472.682,439.723,491.102,426.968z M534.577,591.565c12.755,18.407,8.16,43.682-10.247,56.44
	c-18.418,12.76-43.696,8.17-56.448-10.245L365.902,489.545c-12.754-18.413-8.165-43.691,10.25-56.446
	c18.42-12.755,43.688-8.165,56.447,10.251L534.577,591.565z"/>
</svg>
